<?xml version="1.0" encoding="UTF-8"?>
<svg width="1200pt" height="1200pt" version="1.1" viewBox="0 0 1200 1200" xmlns="http://www.w3.org/2000/svg">
 <path d="m1139.8 721.31-96.562-229.87c2.0625-7.3125 3.5625-14.625 3.5625-22.5 0-25.688-11.812-49.688-31.688-65.438v-23.062c0-10.5-8.25-18.938-18.375-20.062v-45.375c0-18.75-15.188-33.938-33.938-33.938s-33.938 15.188-33.938 33.938v45.188c-10.5 0.75-19.125 9.375-19.125 20.25v24.188c-19.312 15.938-30.375 39.188-30.375 64.312 0 7.875 1.3125 15.75 3.5625 23.25l-96.188 229.31-12.938 30.938c-2.0625 4.6875 0.1875 10.125 4.875 12 1.125 0.5625 2.4375 0.75 3.5625 0.75 3.5625 0 7.125-2.0625 8.4375-5.625l11.625-27.562 44.062-18c16.688-6.75 29.812-19.5 37.125-35.812l57.75-129c7.125 1.875 14.625 3.1875 22.312 3.1875s15-1.3125 22.125-3.375l57.75 129.19c7.3125 16.312 20.438 29.062 37.125 35.812l44.062 18 11.438 27.375c1.5 3.5625 4.875 5.625 8.4375 5.625 1.125 0 2.4375-0.1875 3.5625-0.75 4.6875-2.0625 6.9375-7.3125 4.875-12zm-149.26-252.56c0 15.188-12.375 27.375-27.375 27.375-15.188 0-27.375-12.375-27.375-27.375 0-1.125 0.1875-2.4375 0.375-3.5625h54c0.1875 1.3125 0.375 2.4375 0.375 3.5625zm-27.938-169.31c8.625 0 15.562 6.9375 15.562 15.562v44.812h-30.938v-44.812c-0.1875-8.625 6.75-15.562 15.375-15.562zm-34.5 81c0-1.125 0.9375-2.0625 2.0625-2.0625h64.312c1.125 0 2.0625 0.9375 2.0625 2.0625v64.125c-1.3125 0-2.4375 0.1875-3.75 0.75-0.75 0.375-1.5 0.9375-2.0625 1.5h-57c-0.375-0.1875-0.75-0.5625-1.125-0.75-1.5-0.5625-2.8125-0.75-4.3125-0.5625-0.1875-0.1875-0.375-0.5625-0.375-0.75v-64.312zm-61.875 290.26c-5.4375 12-15 21.375-27.188 26.25l-27 11.062 81.188-193.31c7.6875 11.812 18.188 21.375 30.375 27.75zm34.875-180.94c0-0.1875 0-0.375-0.1875-0.5625-2.25-6.375-3.375-13.312-3.375-20.25 0-13.5 4.5-26.25 12-36.938v12.75c0 6.75 3.375 12.375 8.4375 16.125-0.5625 2.625-0.75 5.4375-0.75 8.0625 0 25.312 20.625 45.938 45.938 45.938s45.938-20.625 45.938-45.938c0-3-0.375-6-0.9375-9 4.125-3.75 6.9375-9 6.9375-15.188v-14.625c8.25 11.062 13.312 24.562 13.312 38.812 0 36-29.25 65.25-65.25 65.25-28.312-0.1875-53.062-18-62.062-44.438zm186 207.19c-12.188-4.875-21.938-14.25-27.188-26.25l-57.375-128.44c12.375-6.5625 22.875-15.938 30.562-27.562l81.188 193.5z"/>
 <path d="m727.87 459h-476.06c-5.0625 0-9.1875 4.125-9.1875 9.1875v138.74h-28.875c-5.0625 0-9.1875 4.125-9.1875 9.1875s4.125 9.1875 9.1875 9.1875h76.125c5.0625 0 9.1875-4.125 9.1875-9.1875s-4.125-9.1875-9.1875-9.1875h-28.875v-129.56h127.87v454.13h-127.87v-132h28.875c5.0625 0 9.1875-4.125 9.1875-9.1875s-4.125-9.1875-9.1875-9.1875h-76.125c-5.0625 0-9.1875 4.125-9.1875 9.1875s4.125 9.1875 9.1875 9.1875h28.875v141.19c0 5.0625 4.125 9.1875 9.1875 9.1875h476.06c5.0625 0 9.1875-4.125 9.1875-9.1875v-472.5c0-4.875-4.125-9.1875-9.1875-9.1875zm-320.44 166.5h143.81c5.0625 0 9.1875-4.125 9.1875-9.1875s-4.125-9.1875-9.1875-9.1875h-143.81v-129.56h311.26v129.56h-78.75c-5.0625 0-9.1875 4.125-9.1875 9.1875s4.125 9.1875 9.1875 9.1875h78.75v132.94h-179.26c-5.0625 0-9.1875 4.125-9.1875 9.1875v164.06h-122.81zm141.19 306.19v-154.87h170.06v154.87z"/>
 <path d="m1200 112.88c0-36.75-30-66.75-67.125-66.75h-63.75c-5.0625 0-9.1875 4.125-9.1875 9.1875v106.12h-991.87c-37.5 0-68.062 30.562-68.062 68.062v794.81c0 34.125 13.875 67.5 37.875 91.688 24.562 24.562 57.188 38.25 91.875 38.25 5.0625 0 9.1875-4.125 9.1875-9.1875v-119.44h985.69c41.438 0 75.188-33.75 75.188-75.188v-836.81c0.1875-0.1875 0.1875-0.5625 0.1875-0.75zm-121.5-48.375h54.375c26.812 0 48.562 21.562 48.562 48.188v1.125c-0.375 26.438-21.938 47.812-48.562 47.812h-54.375zm-1027.5 1038.2c-20.625-20.625-32.438-49.312-32.438-78.562v-747.94c0.375 0.5625 0.9375 0.9375 1.3125 1.5 12.75 12.75 29.812 19.875 48.188 19.875h52.5v718.31c0 0.1875-0.1875 0.375-0.1875 0.75s0.1875 0.375 0.1875 0.75v117.94c-26.25-2.4375-50.625-13.688-69.562-32.625zm1130.4-152.26c0 31.312-25.5 56.812-56.812 56.812h-985.69v-719.06c0-5.0625-4.125-9.1875-9.1875-9.1875h-61.875c-13.312 0-25.875-5.0625-35.062-14.438-9.375-9.375-14.438-21.75-14.438-35.062 0-27.375 22.312-49.5 49.5-49.5h1065c19.125 0 36.375-8.0625 48.562-21z"/>
 <path d="m266.26 386.63h515.63c5.0625 0 9.1875-4.125 9.1875-9.1875v-131.26c0-5.0625-4.125-9.1875-9.1875-9.1875h-515.63c-5.0625 0-9.1875 4.125-9.1875 9.1875v131.26c0 5.0625 4.125 9.1875 9.1875 9.1875zm9.1875-131.26h45.375v66.75c0 5.0625 4.125 9.1875 9.1875 9.1875s9.1875-4.125 9.1875-9.1875v-66.75h47.438v43.875c0 5.0625 4.125 9.1875 9.1875 9.1875s9.1875-4.125 9.1875-9.1875v-43.875h47.438v66.75c0 5.0625 4.125 9.1875 9.1875 9.1875s9.1875-4.125 9.1875-9.1875v-66.75h47.438v43.875c0 5.0625 4.125 9.1875 9.1875 9.1875s9.1875-4.125 9.1875-9.1875v-43.875h47.438v66.75c0 5.0625 4.125 9.1875 9.1875 9.1875s9.1875-4.125 9.1875-9.1875v-66.75h47.438v43.875c0 5.0625 4.125 9.1875 9.1875 9.1875s9.1875-4.125 9.1875-9.1875v-43.875h47.438v66.75c0 5.0625 4.125 9.1875 9.1875 9.1875s9.1875-4.125 9.1875-9.1875v-66.75h37.5v112.88h-496.13z"/>
</svg>
