<?xml version="1.0" encoding="UTF-8"?>
<svg width="1200pt" height="1200pt" version="1.1" viewBox="0 0 1200 1200" xmlns="http://www.w3.org/2000/svg">
 <path d="m130.5 774.24c-0.14062-15.375 23.25-15.562 23.391-0.1875l0.32812 27.281c0 35.25 17.203 65.062 47.766 82.688l351.66 203.06c30.375 17.531 64.125 17.531 94.5 0l53.906-31.125c13.312-7.6406 25.031 12.562 11.766 20.25l-53.953 31.125c-37.594 21.656-80.25 21.656-117.84 0l-351.79-203.06c-37.594-21.75-59.438-59.438-59.438-102.94zm48.75-109.45c-10.922 10.922-27.469-5.7188-16.547-16.594l21-21-21-21.094c-10.922-10.922 5.625-27.469 16.547-16.547l21.094 21 21-21c10.922-10.922 27.516 5.625 16.594 16.547l-21.094 21.094 21.094 21c10.922 10.922-5.7188 27.516-16.594 16.594l-21-21.094zm503.26-326.48c-10.922 10.922-27.469-5.7188-16.547-16.594l21-21-21-21.094c-10.922-10.922 5.625-27.469 16.547-16.547l21.094 21 21-21c10.922-10.922 27.469 5.625 16.547 16.547l-21 21.094 21 21c10.922 10.922-5.625 27.516-16.547 16.594l-21-21.094zm-331.03 46.078c-11.344-10.266 4.4062-27.656 15.75-17.25l17.531 15.938 30.703-37.969c9.7031-11.906 27.844 2.8594 18.141 14.719l-38.156 47.109c-4.0312 5.5781-12.188 6.4688-17.344 1.7344zm607.69 43.734c-11.344-10.359 4.4062-27.656 15.75-17.25l17.531 15.844 30.703-37.969c9.7031-11.906 27.844 2.8594 18.141 14.719l-38.156 47.062c-4.0312 5.625-12.188 6.5156-17.344 1.7812zm-659.81 435.98c-5.0625 14.531-27.188 6.9844-22.219-7.5938 31.406-91.641 90.188-171.79 167.9-229.6 12.375-9.1875 26.25 9.6562 13.875 18.797-73.875 54.984-129.74 131.21-159.56 218.39zm298.97-288.89c-14.672 4.4531-21.469-17.906-6.75-22.312 45.375-13.828 92.484-20.766 139.92-20.766 92.812 0 183.19 26.625 261 77.203 12.891 8.2969 0.1875 27.938-12.656 19.594-74.203-48.188-159.94-73.312-248.34-73.312-45.094-0.046876-90.047 6.4219-133.18 19.594zm401.34-282.74c70.406 0 127.6 57.094 127.6 127.5s-57.141 127.5-127.6 127.5c-70.453 0-127.5-57.094-127.5-127.5 0-70.453 57.094-127.5 127.5-127.5zm0 23.391c-57.469 0-104.06 46.641-104.06 104.11s46.594 104.06 104.06 104.06c57.562 0 104.11-46.594 104.11-104.06 0-57.516-46.547-104.11-104.11-104.11zm-296.11-142.69c70.406 0 127.5 57.094 127.5 127.5s-57.094 127.5-127.5 127.5-127.6-57.094-127.6-127.5c0.046875-70.406 57.141-127.5 127.6-127.5zm0 23.438c-57.562 0-104.11 46.641-104.11 104.11s46.594 104.06 104.11 104.06c57.469 0 104.06-46.594 104.06-104.06-0.046876-57.516-46.594-104.11-104.06-104.11zm-311.58 52.125c70.406 0 127.6 57.094 127.6 127.5 0 35.203-14.25 67.125-37.406 90.188-23.062 23.109-54.938 37.312-90.188 37.312-70.406 0-127.5-57.094-127.5-127.5s57.094-127.5 127.5-127.5zm0 23.438c-57.469 0-104.06 46.594-104.06 104.06s46.594 104.11 104.06 104.11c57.562 0 104.11-46.641 104.11-104.11-0.046876-57.469-46.594-104.06-104.11-104.06zm-191.72 227.53c70.406 0 127.5 57.094 127.5 127.5 0 35.203-14.25 67.125-37.312 90.188s-54.938 37.312-90.188 37.312c-70.406 0-127.5-57.094-127.5-127.5 0.046875-70.453 57.094-127.5 127.5-127.5zm0 23.344c-57.469 0-104.11 46.641-104.11 104.11s46.641 104.06 104.11 104.06 104.06-46.594 104.06-104.06-46.594-104.11-104.06-104.11zm833.34 595.82c-49.172-56.672-125.63-128.53-116.44-208.74 2.8594-25.031-3.4688-44.906-12.656-67.781-16.031-40.172-36.188-95.812-62.719-128.63-9.4688-11.812-23.062-16.969-37.406-11.297l10.594 14.25c9.1875 12.375-9.5625 26.344-18.75 13.969-5.0625-6.8438-11.109-16.125-17.25-22.219-14.062-11.906-23.625-9.4688-38.906-0.1875l14.531 20.062c9 12.469-9.8906 26.25-18.938 13.781l-18-24.844c-13.594-17.531-28.219-14.625-45.281-4.4531 10.172 13.359 18.094 23.719 22.031 28.828 9.2812 12.188-9.1875 26.344-18.562 14.156-46.641-60.75-92.953-121.69-139.6-182.53-21.938-25.031-59.531 0.46875-39.656 31.781 32.25 50.906 64.875 101.44 96.75 152.63 19.875 31.875 65.719 95.438 64.5 122.58-0.1875 6.4688-5.625 11.484-12.094 11.25-6.4688-0.28125-11.484-5.7188-11.25-12.188 0.5625-12-19.922-45.844-37.688-73.406-1.6875 6.9844-3.6562 14.016-5.625 21.094-9.0469 31.969-18.469 65.578 2.1562 90.75 23.578 28.781 53.25 63.656 84.094 84.375 18.891 12.656 33.188 13.547 47.906 14.344 63.469 3.5625 89.719 41.062 113.25 94.688 4.5 15.75-15.656 22.969-22.266 7.125-19.594-45.281-41.625-75.609-92.25-78.469-17.906-1.0312-35.438-1.9688-59.672-18.281-32.953-22.219-64.031-58.219-89.25-88.969-28.219-34.547-17.156-74.203-6.5156-111.89 4.3125-15.469 8.5781-30.562 9.375-43.641-34.406-52.547-67.641-106.41-101.25-159.56-38.812-61.266 48.094-105.05 78-58.312 34.5 44.906 68.812 89.953 103.22 135 20.859-12.938 44.719-19.594 66-3.4688 19.734-12.844 42.188-20.062 63.188-5.7188 25.594-15.094 54.375-8.7656 72.891 14.25 28.688 35.531 48.562 91.312 66.094 134.44 10.781 26.438 17.625 50.25 14.25 79.219-8.25 71.953 68.25 137.06 110.48 191.72 9.9375 10.828-5.3906 28.031-17.297 14.297zm-58.219-193.74c-13.312 7.6406-24.938-12.562-11.625-20.203l36.094-20.859c30.562-17.672 47.719-47.438 47.719-82.688v-236.53c0-15.422 23.438-15.422 23.438 0v236.53c0 43.453-21.844 81.188-59.438 102.94zm-16.406-663.19c13.312 7.6406 1.6875 27.844-11.625 20.203l-299.26-172.74c-30.375-17.531-64.031-17.531-94.5 0l-351.56 203.11c-30.562 17.625-47.766 47.438-47.766 82.688l-0.32812 80.531c0 15.375-23.391 15.375-23.391 0l0.28125-80.531c0-43.453 21.844-81.281 59.438-102.98l351.74-203.06c37.594-21.75 80.25-21.75 117.84 0z"/>
</svg>
