<?xml version="1.0" encoding="UTF-8"?>
<svg width="1200pt" height="1200pt" version="1.1" viewBox="0 0 1200 1200" xmlns="http://www.w3.org/2000/svg">
 <path d="m1152 376.08c0 180.84-147.14 327.94-327.94 327.94-87.609 0-169.92-34.078-231.94-96.141-57.703-57.703-134.39-89.531-216-89.531-168.47 0-305.53 137.06-305.53 305.53-0.046875 168.52 137.02 305.58 305.48 305.58 159.37 0 291.24-123.47 304.45-279.71l-40.781 35.625c-4.6875 4.0781-11.766 3.6094-15.844-1.0781s-3.6094-11.766 1.0781-15.844l60.609-52.781c2.2969-1.9219 5.1562-3 8.1562-2.7656s5.7656 1.5469 7.6875 3.8438l52.781 60.609c4.0781 4.6875 3.6094 11.766-1.0781 15.844s-11.766 3.6094-15.844-1.0781l-34.312-39.375c-6.6094 77.156-40.078 148.78-95.625 204-62.062 61.406-144.14 95.25-231.28 95.25-180.94 0-328.08-147.14-328.08-328.08 0-180.84 147.14-327.94 327.94-327.94 87.609 0 169.92 34.078 231.94 96.141 57.703 57.703 134.39 89.531 216 89.531 168.47 0 305.53-137.06 305.53-305.53 0.046875-168.52-137.02-305.58-305.48-305.58-159.47 0-291.24 123.47-304.45 279.71l40.781-35.625c4.6875-4.0781 11.766-3.6094 15.844 1.0781s3.6094 11.766-1.0781 15.844l-60.609 52.781c-2.2969 1.9219-5.1562 3-8.1562 2.7656s-5.7656-1.5469-7.6875-3.8438l-52.781-60.609c-4.0781-4.6875-3.6094-11.766 1.0781-15.844s11.766-3.6094 15.844 1.0781l34.312 39.375c6.6094-77.062 39.938-148.55 95.391-203.76 62.062-61.547 144.28-95.484 231.52-95.484 180.94 0 328.08 147.14 328.08 328.08zm-609.14 516.71c-3.8438 9.1406-1.4531 20.766 6.4688 32.625 7.2188 10.547 6.6094 24.375-1.3125 34.453-10.547 13.312-22.547 25.453-35.859 36-9.9375 7.9219-23.859 8.5312-34.453 1.3125-11.859-8.0625-23.391-10.312-32.625-6.4688s-15.703 13.688-18.469 27.703c-2.3906 12.609-12.609 21.938-25.312 23.391-8.3906 0.9375-16.922 1.4531-25.312 1.4531-8.5312 0-16.922-0.46875-25.453-1.4531-12.703-1.4531-22.781-10.922-25.312-23.391-2.7656-14.062-9.2344-23.859-18.469-27.703s-20.766-1.4531-32.625 6.4688c-10.547 7.2188-24.469 6.6094-34.453-1.3125-13.312-10.547-25.312-22.688-35.859-36-7.9219-9.9375-8.3906-23.859-1.3125-34.453 8.0625-11.859 10.312-23.391 6.4688-32.625-3.8438-9.1406-13.547-15.703-27.609-18.375-12.469-2.3906-21.938-12.609-23.391-25.312-1.9219-16.688-1.9219-33.609 0-50.156 1.4531-12.703 10.781-22.781 23.391-25.312 13.922-2.7656 23.766-9.2344 27.609-18.375s1.4531-20.766-6.4688-32.625c-7.2188-10.547-6.6094-24.375 1.3125-34.453 10.547-13.312 22.547-25.453 35.859-36 10.078-7.9219 23.859-8.5312 34.453-1.3125 11.859 8.0625 23.391 10.312 32.625 6.4688s15.703-13.688 18.469-27.703c2.3906-12.609 12.609-21.938 25.312-23.391 16.781-1.9219 33.938-1.9219 50.766 0 12.703 1.4531 22.781 10.922 25.312 23.391 2.625 14.062 9.2344 23.859 18.469 27.703s20.766 1.4531 32.625-6.4688c10.547-7.2188 24.469-6.6094 34.453 1.3125 13.312 10.547 25.312 22.688 35.859 36 7.9219 9.9375 8.3906 23.859 1.3125 34.453-8.0625 11.859-10.312 23.391-6.4688 32.625 3.8438 9.1406 13.547 15.703 27.609 18.375 12.469 2.3906 21.938 12.609 23.391 25.312 1.9219 16.688 1.9219 33.609 0 50.156-1.4531 12.703-10.781 22.781-23.391 25.312-14.016 2.6719-23.859 9.2812-27.609 18.375zm23.203-40.547c3-0.60938 4.9219-2.7656 5.2969-5.7656 1.6875-15 1.6875-30.141 0-45.141-0.375-3-2.2969-5.1562-5.2969-5.7656-21.609-4.2188-37.312-15.609-44.062-31.922-6.8438-16.453-3.7031-35.531 8.625-53.859 1.6875-2.5312 1.5469-5.3906-0.23438-7.7812-9.4688-12-20.297-22.781-32.297-32.297-2.3906-1.9219-5.2969-2.0625-7.7812-0.23438-18.375 12.375-37.453 15.469-53.859 8.625-16.453-6.8438-27.844-22.547-31.922-44.297-0.60938-3-2.7656-4.9219-5.7656-5.2969-15.141-1.7812-30.469-1.7812-45.609 0-3 0.375-5.1562 2.2969-5.7656 5.2969-4.2188 21.703-15.469 37.547-31.922 44.297-16.453 6.8438-35.531 3.7031-53.859-8.625-2.5312-1.6875-5.3906-1.5469-7.7812 0.23438-11.859 9.4688-22.781 20.297-32.156 32.297-1.9219 2.3906-2.0625 5.2969-0.23438 7.7812 12.375 18.375 15.469 37.453 8.625 53.859-6.7031 16.312-22.453 27.703-44.062 31.922-3 0.60938-4.9219 2.7656-5.2969 5.7656-1.6875 15-1.6875 30.141 0 45.141 0.375 3 2.2969 5.1562 5.2969 5.7656 21.609 4.2188 37.312 15.609 44.062 31.922 6.8438 16.453 3.7031 35.531-8.625 53.859-1.6875 2.5312-1.5469 5.3906 0.23438 7.7812 9.4688 12 20.297 22.781 32.156 32.297 2.3906 1.9219 5.2969 2.0625 7.7812 0.23438 12-8.0625 24.234-12.234 35.859-12.234 6.2344 0 12.234 1.2188 17.859 3.4688 16.453 6.8438 27.844 22.547 31.922 44.297 0.60938 3 2.7656 4.9219 5.7656 5.2969 15.141 1.7812 30.469 1.7812 45.609 0 3-0.375 5.1562-2.2969 5.7656-5.2969 4.2188-21.703 15.469-37.453 31.922-44.297s35.531-3.7031 53.859 8.625c2.5312 1.6875 5.3906 1.5469 7.7812-0.23438 11.859-9.4688 22.781-20.297 32.297-32.297 1.9219-2.3906 2.0625-5.2969 0.23438-7.7812-12.375-18.375-15.469-37.453-8.625-53.859 6.9844-16.172 22.594-27.562 44.203-31.781zm-81.516-28.312c0 59.766-48.703 108.47-108.47 108.47s-108.47-48.703-108.47-108.47 48.703-108.47 108.47-108.47 108.47 48.703 108.47 108.47zm-22.547 0c0-47.391-38.531-85.922-85.922-85.922s-85.922 38.531-85.922 85.922 38.531 85.922 85.922 85.922 85.922-38.531 85.922-85.922zm195.14-516.71c3.8438-9.1406 1.4531-20.766-6.4688-32.625-7.2188-10.547-6.6094-24.375 1.3125-34.453 10.547-13.312 22.547-25.453 35.859-36 9.9375-7.9219 23.859-8.5312 34.453-1.3125 11.859 8.0625 23.391 10.312 32.625 6.4688s15.703-13.688 18.469-27.703c2.3906-12.609 12.609-21.938 25.312-23.391 16.781-1.9219 33.938-1.9219 50.766 0 12.703 1.4531 22.781 10.922 25.312 23.391 2.7656 14.062 9.2344 23.859 18.469 27.703s20.766 1.4531 32.625-6.4688c10.547-7.2188 24.469-6.6094 34.453 1.3125 13.312 10.547 25.312 22.688 35.859 36 7.9219 9.9375 8.3906 23.859 1.3125 34.453-8.0625 11.859-10.312 23.391-6.4688 32.625 3.8438 9.1406 13.547 15.703 27.609 18.375 12.469 2.3906 21.938 12.609 23.391 25.312 1.9219 16.688 1.9219 33.609 0 50.156-1.4531 12.703-10.781 22.781-23.391 25.312-13.922 2.7656-23.766 9.2344-27.609 18.375s-1.4531 20.766 6.4688 32.625c7.2188 10.547 6.6094 24.375-1.3125 34.453-10.547 13.312-22.547 25.453-35.859 36-9.9375 7.9219-23.859 8.5312-34.453 1.3125-11.859-8.0625-23.391-10.312-32.625-6.4688s-15.703 13.688-18.469 27.703c-2.3906 12.609-12.609 21.938-25.312 23.391-8.3906 0.9375-16.922 1.4531-25.312 1.4531-8.5312 0-16.922-0.46875-25.453-1.4531-12.703-1.4531-22.781-10.922-25.312-23.391-2.7656-14.062-9.2344-23.859-18.469-27.703s-20.766-1.4531-32.625 6.4688c-10.547 7.2188-24.469 6.6094-34.453-1.3125-13.312-10.547-25.312-22.688-35.859-36-7.9219-9.9375-8.3906-23.859-1.3125-34.453 8.0625-11.859 10.312-23.391 6.4688-32.625-3.8438-9.1406-13.547-15.703-27.609-18.375-12.469-2.3906-21.938-12.609-23.391-25.312-1.9219-16.688-1.9219-33.609 0-50.156 1.4531-12.703 10.781-22.781 23.391-25.312 14.016-2.6719 23.859-9.2812 27.609-18.375zm-23.203 40.547c-3 0.60938-4.9219 2.7656-5.2969 5.7656-1.6875 15-1.6875 30.141 0 45.141 0.375 3 2.2969 5.1562 5.2969 5.7656 21.609 4.2188 37.312 15.609 44.062 31.922 6.8438 16.453 3.7031 35.531-8.625 53.859-1.6875 2.5312-1.5469 5.3906 0.23438 7.7812 9.4688 12 20.297 22.781 32.156 32.297 2.3906 1.9219 5.2969 2.0625 7.7812 0.23438 12-8.0625 24.234-12.234 35.859-12.234 6.2344 0 12.234 1.2188 17.859 3.4688 16.453 6.8438 27.844 22.547 31.922 44.297 0.60938 3 2.7656 4.9219 5.7656 5.2969 15.141 1.7812 30.469 1.7812 45.609 0 3-0.375 5.1562-2.2969 5.7656-5.2969 4.2188-21.703 15.469-37.453 31.922-44.297s35.531-3.7031 53.859 8.625c2.5312 1.6875 5.3906 1.5469 7.7812-0.23438 11.859-9.4688 22.781-20.391 32.156-32.297 1.9219-2.3906 2.0625-5.2969 0.23438-7.7812-12.375-18.375-15.469-37.453-8.625-53.859 6.7031-16.312 22.453-27.703 44.062-31.922 3-0.60938 4.9219-2.7656 5.2969-5.7656 1.6875-15 1.6875-30.141 0-45.141-0.375-3-2.2969-5.1562-5.2969-5.7656-21.609-4.2188-37.312-15.609-44.062-31.922-6.8438-16.453-3.7031-35.531 8.625-53.859 1.6875-2.5312 1.5469-5.3906-0.23438-7.7812-9.4688-12-20.297-22.781-32.156-32.297-2.3906-1.9219-5.2969-2.0625-7.7812-0.23438-18.375 12.375-37.453 15.469-53.859 8.625-16.453-6.8438-27.844-22.547-31.922-44.297-0.60938-3-2.7656-4.9219-5.7656-5.2969-15.141-1.7812-30.469-1.7812-45.609 0-3 0.375-5.1562 2.2969-5.7656 5.2969-4.2188 21.703-15.469 37.453-31.922 44.297s-35.531 3.7031-53.859-8.625c-2.5312-1.6875-5.3906-1.5469-7.7812 0.23438-11.859 9.4688-22.781 20.297-32.156 32.297-1.9219 2.3906-2.0625 5.2969-0.23438 7.7812 12.375 18.375 15.469 37.453 8.625 53.859-6.7031 16.453-22.312 27.844-43.922 32.062zm81.516 28.312c0-59.766 48.703-108.47 108.47-108.47s108.47 48.703 108.47 108.47-48.703 108.47-108.47 108.47-108.47-48.703-108.47-108.47zm22.547 0c0 47.391 38.531 85.922 85.922 85.922s85.922-38.531 85.922-85.922-38.531-85.922-85.922-85.922-85.922 38.531-85.922 85.922z"/>
</svg>
