<?xml version="1.0" encoding="UTF-8"?>
<svg width="1200pt" height="1200pt" version="1.1" viewBox="0 0 1200 1200" xmlns="http://www.w3.org/2000/svg">
 <path d="m284.48 705.94-16.453 188.21c-1.7812 19.734 14.906 35.766 34.547 33.188 9-1.1719 15.469-2.4375 22.312-9.375 4.6406-4.6875 7.6875-10.969 8.5312-18.047 7.125-61.219 12.422-121.69 16.359-179.76-22.312-3.0938-43.734-7.875-65.297-14.203zm780.52 126.94h-198.94c-6.1406 0-11.203 5.0625-11.203 11.203v19.172c0 6.1406 5.0625 11.203 11.203 11.203h198.89c6.1406 0 11.203-5.0625 11.203-11.203v-19.172c0.046875-6.0938-5.0156-11.203-11.156-11.203zm-198.94-24.422h198.89c19.641 0 35.625 16.031 35.625 35.625v19.172c0 19.641-16.031 35.625-35.625 35.625l-198.89 0.046875c-19.641 0-35.625-16.031-35.625-35.625v-19.172c0-19.641 16.031-35.672 35.625-35.672zm-125.26 121.97h-198.94c-6.1406 0-11.203 5.0625-11.203 11.203v19.172c0 6.1406 5.0625 11.203 11.203 11.203h198.89c6.1406 0 11.203-5.0625 11.203-11.203v-19.172c0.046875-6.1406-5.0156-11.203-11.156-11.203zm-198.94-24.422h198.89c19.641 0 35.625 16.031 35.625 35.625v19.172c0 19.641-16.031 35.625-35.625 35.625l-198.89 0.046875c-19.641 0-35.625-16.031-35.625-35.625v-19.172c0-19.641 16.031-35.672 35.625-35.672zm-125.26 121.97h-198.89c-6.1406 0-11.203 5.0625-11.203 11.203v19.172c0 6.1406 5.0625 11.203 11.203 11.203h198.89c6.1406 0 11.203-5.0625 11.203-11.203v-19.172c0-6.1406-5.0625-11.203-11.203-11.203zm-198.89-24.422h198.89c19.641 0 35.625 16.031 35.625 35.625v19.172c0 19.641-16.031 35.625-35.625 35.625h-198.89c-19.641 0-35.625-16.031-35.625-35.625v-19.172c-0.046875-19.641 15.984-35.625 35.625-35.625zm654.42-473.16c3.8906-0.65625 8.0156-0.75 12.375-0.14062 3.9375 0.5625 7.5469 3 9.3281 6.8906 26.906 57.469 42.562 96 75.656 158.06 18.562 34.828 79.078 9.9375 58.922-29.062-62.156-120.42-104.25-209.53-147.1-340.6-4.1719-12.797 12.75-21.844 28.219-19.219 7.5 1.2656 15.797 5.0625 24.844 11.344l59.812 41.906c15.562 10.922 36.609-3.0938 33.281-21.562-1.0312-5.7656-3.9375-10.266-8.7656-13.641-25.266-17.484-53.438-35.812-81.047-48.328-26.062-11.812-51.469-18.375-72.844-13.594l-83.156 22.359v-0.046876c-26.766 7.1719-44.109 35.719-63.047 66.422-9.9375 16.172-28.406 24.703-47.156 20.812l-65.109-13.453c-18.844-3.8906-31.266 18.844-21.656 33.703 2.9531 4.5938 7.6875 8.0625 13.359 9.3281l93.188 20.719c13.266 1.9219 24.562-2.0625 34.453-9.5625 11.062-8.3906 20.719-21.141 29.531-35.391 6.375-10.312 19.922-12.188 28.875-5.0625v0.046874c2.8125 2.2031 5.0625 5.3906 6.2812 8.9531 11.297 32.578 24.797 75.469 29.438 90.188 3.0469 9.7031-1.3125 20.109-10.312 24.797-59.016 30.75-37.781 162.47-27.984 228 6.1406 40.969 59.531 31.875 55.031-6.1406-2.3906-20.109-4.9688-54.656-7.7344-70.828-5.4844-32.25-0.32812-109.41 43.312-116.91zm3.0469 24.281c-14.016 3.7031-20.156 30.609-22.078 44.484-2.2969 16.406-2.0625 33.047-0.14062 44.062 1.4531 8.5781 2.625 20.344 3.9844 34.781 0.98438 10.312 2.1094 22.078 3.9375 37.266 5.0625 42.516-32.859 67.922-66.562 57.984-17.719-5.2031-32.953-19.875-36.797-45.469-11.531-76.875-32.719-211.31 38.25-251.76-4.4062-14.016-15.984-50.484-25.078-77.484-19.359 28.781-45.469 53.438-82.875 47.953-0.60938-0.09375-1.1719-0.23438-1.7344-0.375l-93.141-20.719c-24.422-5.4375-40.078-29.531-34.875-53.906 2.8125-13.031 9.0938-23.016 19.688-30.094 9.5625-6.375 21.469-9.1406 33.562-6.6562l65.109 13.453c9.2812 1.9219 17.016-2.3438 21.938-10.359 21.047-34.172 41.484-67.312 77.109-76.547v-0.046875l83.156-22.359c0.32812-0.09375 0.65625-0.14062 0.98438-0.23438 27.281-6.0469 57.75 1.4062 88.125 15.188 29.203 13.219 58.594 32.344 84.891 50.531 20.766 14.344 26.016 42.562 11.391 63.469-14.859 21.234-42.984 26.156-63.656 11.719l-59.719-41.812c-4.4531-3.0938-8.3438-5.2031-11.672-6.4219 41.062 122.86 82.266 209.58 141.19 323.68 21 40.688-8.8125 77.016-46.5 80.953-21.094 2.2031-43.172-6.0938-55.547-29.297-31.734-59.344-49.547-101.25-72.938-151.97zm-116.3-422.81c-42.047 10.453-50.391 66.797-13.359 89.062 37.078 22.312 82.969-11.391 72.469-53.578-6.5156-26.156-33-42-59.109-35.484zm-50.859 9.6094c20.812-34.594 65.719-45.797 100.31-24.984s45.797 65.719 24.984 100.31-65.719 45.797-100.31 24.984c-34.594-20.766-45.797-65.672-24.984-100.31zm-458.48 683.68c2.4375-28.406 5.3906-62.484 11.25-127.78-19.406-9.9375-29.203-24.984-30.234-48.938v-0.5625l0.75-106.36-7.6406 9.5625-39.938 60.141c-13.219 21.469-43.734 27.609-64.172 12.984-10.406-7.4531-16.781-16.172-19.312-28.969-2.3906-12.094 0-23.953 6.8906-34.172 31.359-46.594 80.297-115.92 137.72-124.45l0.42187-0.046874 84.984-9.4688 0.46875-0.046876c36.516-4.5 67.688 18.984 99.797 43.172 7.4531 5.625 16.312 6.75 24.188 1.6406l55.734-36.281c20.812-13.547 48.516-7.125 62.109 13.359 7.4062 11.203 10.031 22.875 7.4531 35.391-2.2969 11.391-8.9531 21.891-19.359 28.875l-79.594 53.578c-0.32812 0.23437-0.70312 0.46875-1.0781 0.70312-32.906 18.703-66 5.3906-94.641-14.391l3.3281 59.906c39.562 4.2656 73.453 13.875 99.141 29.25 26.156 15.656 43.969 37.125 50.906 64.734 1.125 3.8906 9.0938 31.781 19.5 77.297 7.3594 32.203-14.672 63.094-47.203 66.938l-3.2812 0.375c-27.422 3.2344-52.734-14.016-59.719-40.781-6.2344-23.859-13.922-49.266-18.844-69.562-1.4531-6.0469-4.9688-11.016-11.062-12.656-14.109-3.7031-29.25-5.1094-44.156-6.1406-3.6562 55.266-9.5625 122.48-16.312 180.24-2.9531 25.312-22.266 44.906-47.578 48.234-10.688 1.4062-18.281 1.875-28.734-1.5469-23.906-7.875-39.938-31.312-37.594-57.328 0.28125-2.5781 2.8125-32.156 5.8125-66.891zm46.312-548.86c-40.078 5.25-68.25 41.953-63 81.938 5.25 40.078 41.953 68.25 81.938 63 40.078-5.25 68.25-41.953 63-81.938-5.2031-40.031-41.906-68.203-81.938-63zm39.188 33.844c21.375 16.453 25.359 47.016 8.9531 68.391-26.484 34.453-81.422 19.5-87.047-23.391-5.5781-42.984 43.781-71.391 78.094-45zm28.781 387.24c-15.328-1.7344-29.719-4.1719-43.734-7.3125s-27.891-6.9844-42.141-11.625c-7.3594-3-13.125-6.3281-16.875-10.922-3.6094-4.4531-5.7656-10.734-6.1875-20.016l0.84375-120.37c0.42188-5.4844-2.9531-10.688-8.3906-12.469-15.609-5.0625-30.562 2.8125-43.969 23.016l-40.359 60.797c-3.2344 4.8281-8.1094 7.9219-13.359 9-18.094 3.6562-33.234-16.547-22.219-32.859 25.734-38.25 74.062-107.77 121.03-113.86l85.312-9.4688c26.859-3.3281 54.141 17.25 82.266 38.391 15.562 11.719 35.484 13.359 52.078 2.5781l55.734-36.281c4.6406-3 10.125-3.7969 15.234-2.6719 17.391 3.7969 24.984 28.359 8.1562 39.703l-79.5 53.531c-11.484 6.4219-23.391 6.7969-35.297 3.4688-13.406-3.7969-27.047-12.141-40.406-22.125-13.406-10.031-31.922 0.23438-31.266 16.406l3.9375 73.312c0.70312 10.125 8.5312 18.281 18.703 19.312 53.906 5.3906 118.64 23.672 131.81 75.984 0.23438 0.84375 8.1562 27.656 19.359 76.781 2.0156 8.8594 0.42188 17.062-4.8281 24.516-6.75 9.5625-14.016 11.906-24.75 13.172-15.375 1.8281-29.438-7.7812-33.328-22.688-6.3281-24.188-13.922-49.219-18.75-69.188-3.5625-14.766-13.547-26.531-28.547-30.469-19.5-5.1562-40.078-6.4219-60.562-7.6406z" fill-rule="evenodd"/>
</svg>
