<?xml version="1.0" encoding="UTF-8"?>
<svg width="1200pt" height="1200pt" version="1.1" viewBox="0 0 1200 1200" xmlns="http://www.w3.org/2000/svg">
 <path d="m575.29 1017.4h-431.72v-874.03h496.08v99.375c0 6.5156 5.2969 11.766 11.766 11.766h99.375v257.16c0 6.5156 5.2969 11.766 11.766 11.766 6.5156 0 11.766-5.2969 11.766-11.766l0.046876-268.92c0-3.1406-1.2188-6.1406-3.4688-8.3438l-111.14-111.19c-2.2031-2.2031-5.2031-3.4688-8.3438-3.4688l-519.66 0.046875c-6.5156 0-11.766 5.2969-11.766 11.766v897.61c0 6.5156 5.2969 11.766 11.766 11.766h443.53c6.5156 0 11.766-5.2969 11.766-11.766s-5.25-11.766-11.766-11.766zm87.938-857.34 70.922 70.922h-70.922zm-310.22 98.156c-4.8281-4.3594-12.281-3.9375-16.641 0.89062l-17.625 19.641h-105.7c-6.5156 0-11.766 5.2969-11.766 11.766v107.86c0 6.5156 5.2969 11.766 11.766 11.766h108.19c6.5156 0 11.766-5.2969 11.766-11.766v-100.27l20.859-23.297c4.4062-4.7812 3.9844-12.234-0.84375-16.594zm-43.547 128.39h-84.609v-84.281h72.75l-29.391 32.766-13.359-18.844c-3.75-5.2969-11.109-6.5625-16.406-2.7656-5.2969 3.75-6.5625 11.109-2.7656 16.406l21.891 30.844c2.0625 2.9062 5.3438 4.7344 8.9531 4.9219h0.65625c3.3281 0 6.5156-1.4062 8.7656-3.8906l33.562-37.406v62.25zm383.29-53.906c0 6.5156-5.2969 11.766-11.766 11.766h-282.1c-6.5156 0-11.766-5.2969-11.766-11.766 0-6.5156 5.2969-11.766 11.766-11.766h282.05c6.5156-0.046875 11.812 5.25 11.812 11.766zm-339.74 106.03c-4.8281-4.3594-12.281-3.9375-16.641 0.89062l-17.344 19.312h-105.98c-6.5156 0-11.766 5.2969-11.766 11.766v108.19c0 6.5156 5.2969 11.766 11.766 11.766h108.19c6.5156 0 11.766-5.2969 11.766-11.766v-100.27l20.859-23.297c4.4062-4.7812 3.9844-12.234-0.84375-16.594zm-43.547 128.39h-84.609v-84.609h73.078l-29.672 33.094-13.359-18.844c-3.75-5.2969-11.109-6.5625-16.406-2.7656-5.2969 3.75-6.5625 11.109-2.7656 16.406l21.891 30.844c2.0625 2.9062 5.3438 4.7344 8.9531 4.9219h0.65625c3.3281 0 6.5156-1.4062 8.7656-3.8906l33.562-37.406-0.046875 62.25zm371.48-42.141h-282.05c-6.5156 0-11.766-5.2969-11.766-11.766 0-6.5156 5.2969-11.766 11.766-11.766h282.05c6.5156 0 11.766 5.2969 11.766 11.766 0.046875 6.4688-5.25 11.766-11.766 11.766zm-327.94 94.266c-4.8281-4.3594-12.281-3.9375-16.641 0.89062l-17.344 19.312h-105.98c-6.5156 0-11.766 5.2969-11.766 11.766v108.19c0 6.5156 5.2969 11.766 11.766 11.766h108.19c6.5156 0 11.766-5.2969 11.766-11.766v-100.27l20.859-23.297c4.4062-4.7812 3.9844-12.234-0.84375-16.594zm-43.547 128.39h-84.609v-84.609h73.078l-29.672 33.094-13.359-18.844c-3.75-5.2969-11.109-6.5625-16.406-2.7656-5.2969 3.75-6.5625 11.109-2.7656 16.406l21.891 30.844c2.0625 2.9062 5.3438 4.7344 8.9531 4.9219h0.65625c3.3281 0 6.5156-1.4062 8.7656-3.8906l33.562-37.406-0.046875 62.25zm213.37-53.906c0 6.5156-5.2969 11.766-11.766 11.766h-112.17c-6.5156 0-11.766-5.2969-11.766-11.766 0-6.5156 5.2969-11.766 11.766-11.766h112.17c6.5156-0.046874 11.766 5.25 11.766 11.766zm-186.47 106.97-17.297 19.312h-105.98c-6.5156 0-11.766 5.2969-11.766 11.766v107.86c0 6.5156 5.2969 11.766 11.766 11.766h108.19c6.5156 0 11.766-5.2969 11.766-11.766v-99.938l20.859-23.297c4.3594-4.8281 3.9375-12.281-0.89063-16.641-4.8281-4.3125-12.281-3.9375-16.641 0.9375zm-26.906 127.13h-84.609v-84.281h73.078l-29.625 33.047-13.406-19.078c-3.75-5.3438-11.109-6.6094-16.406-2.8594-5.3438 3.75-6.6094 11.109-2.8594 16.406l21.891 31.219c2.0625 2.9531 5.3438 4.7812 8.9531 4.9688 0.23438 0 0.46875 0.046875 0.70313 0.046875 3.3281 0 6.5156-1.4062 8.7656-3.8906l33.562-37.406zm213.37-53.906c0 6.5156-5.2969 11.766-11.766 11.766h-112.17c-6.5156 0-11.766-5.2969-11.766-11.766 0-6.5156 5.2969-11.766 11.766-11.766h112.17c6.5156 0 11.766 5.25 11.766 11.766zm548.72-105.84-52.922-15.75c-3.2812-10.5-7.6875-21.234-13.125-31.969l26.297-49.266c2.4375-4.5938 1.5938-10.219-2.0625-13.875l-53.109-53.109c-3.6562-3.6562-9.3281-4.5-13.875-2.0625l-48.797 26.203c-10.547-5.5312-21.281-9.9844-32.109-13.359l-16.078-53.297c-1.5-4.9688-6.0938-8.3906-11.297-8.3906h-75c-5.2031 0-9.75 3.375-11.25 8.3438l-16.078 52.969c-11.203 3.4688-21.938 7.8281-32.062 13.078l-48.844-26.203c-4.5469-2.4375-10.172-1.6406-13.875 2.0156l-53.438 53.109c-3.7031 3.6562-4.5469 9.3281-2.0625 13.922l26.203 48.844c-5.0625 9.75-9.4688 20.344-13.219 31.688l-53.438 16.125c-4.9688 1.5-8.3906 6.0938-8.3906 11.297v75.328c0 5.2031 3.375 9.75 8.3438 11.25l52.969 16.078c3.2812 10.5 7.6875 21.234 13.125 31.969l-26.25 48.938c-2.4375 4.5469-1.6406 10.219 2.0156 13.875l53.109 53.438c3.6562 3.7031 9.3281 4.5469 13.922 2.0625l48.844-26.203c9.8906 5.1094 20.625 9.5625 32.016 13.266l16.125 53.391c1.5 4.9688 6.0938 8.3906 11.297 8.3906h75c5.2031 0 9.75-3.375 11.25-8.3438l16.125-53.109c11.203-3.6094 21.891-7.9688 31.922-13.031l49.266 26.297c4.5938 2.4375 10.219 1.5938 13.875-2.1094l53.109-53.438c3.6562-3.7031 4.4531-9.3281 2.0156-13.875l-26.156-48.469c5.5312-10.5 9.9844-21.234 13.359-32.062l53.297-16.078c4.9688-1.5 8.3906-6.0938 8.3906-11.297v-75.328c0-5.2031-3.4219-9.7969-8.4375-11.25zm-15.141 77.812-51.047 15.375c-3.8906 1.1719-6.8906 4.2656-7.9688 8.2031-3.5625 13.031-9 26.109-16.172 38.766-1.9688 3.5156-2.0156 7.8281-0.09375 11.391l25.031 46.406-40.734 41.016-47.016-25.078c-3.4688-1.875-7.6406-1.8281-11.109 0-12.047 6.4688-25.219 11.859-39.234 16.031-3.7969 1.125-6.7969 4.0781-7.9219 7.875l-15.375 50.719h-57.516l-15.375-51.047c-1.1719-3.7969-4.125-6.75-7.9219-7.875-14.297-4.2188-27.422-9.7031-39.047-16.219-3.5156-1.9688-7.7812-2.0156-11.344-0.14062l-46.688 25.078-40.734-41.016 25.078-46.734c1.875-3.4688 1.875-7.6875 0-11.156-7.125-13.219-12.469-26.344-15.938-39-1.0781-3.8906-4.0781-6.9844-7.9219-8.1562l-50.719-15.375v-57.844l51-15.375c3.7969-1.125 6.75-4.0781 7.875-7.875 4.3125-14.297 9.7969-27.328 16.219-38.766 1.9688-3.5156 2.0156-7.7812 0.14062-11.344l-25.078-46.688 41.016-40.734 46.734 25.078c3.5625 1.875 7.8281 1.875 11.344-0.14062 11.953-6.75 24.984-12.047 38.766-15.797 3.8906-1.0781 6.9844-4.0781 8.1562-7.9219l15.375-50.719h57.516l15.375 51.047c1.1719 3.8906 4.2656 6.8906 8.2031 7.9688 13.078 3.5625 26.109 9 38.766 16.172 3.5156 1.9688 7.7812 2.0156 11.344 0.14062l46.734-25.078 40.734 40.734-25.078 47.062c-1.875 3.4688-1.8281 7.6406 0 11.109 7.125 13.219 12.469 26.344 15.938 39 1.0781 3.9375 4.125 7.0312 8.0156 8.2031l50.672 15.094zm-239.72-160.26c-72.375 0-131.26 58.734-131.26 130.92 0 72.375 58.875 131.26 131.26 131.26 72.188 0 130.92-58.875 130.92-131.26-0.046875-72.234-58.781-130.92-130.92-130.92zm0 238.55c-59.391 0-107.67-48.328-107.67-107.67 0-59.203 48.328-107.34 107.67-107.34 59.203 0 107.34 48.141 107.34 107.34 0 59.391-48.188 107.67-107.34 107.67zm57.891-107.67c0 6.5156-5.2969 11.766-11.766 11.766h-46.125c-6.5156 0-11.766-5.2969-11.766-11.766v-57.094c0-6.5156 5.2969-11.766 11.766-11.766 6.5156 0 11.766 5.2969 11.766 11.766v45.281h34.359c6.4688 0.046875 11.766 5.3438 11.766 11.812z"/>
</svg>
