<?xml version="1.0" encoding="UTF-8"?>
<svg width="1200pt" height="1200pt" version="1.1" viewBox="0 0 1200 1200" xmlns="http://www.w3.org/2000/svg">
 <path d="m841.31 924.19h-797.81c-24 0-43.5-19.5-43.5-43.312v-685.5c0-23.812 19.5-43.312 43.5-43.312h916.13c23.812 0 43.312 19.5 43.312 43.312v440.26c0 10.125-8.0625 18.188-18.188 18.188s-18.188-8.0625-18.188-18.188v-440.26c0-3.9375-3-6.9375-6.9375-6.9375h-916.13c-3.9375 0-7.125 3.1875-7.125 6.9375v685.5c0 3.75 3.1875 6.9375 7.125 6.9375h797.81c10.125 0 18.188 8.0625 18.188 18.188s-8.0625 18.188-18.188 18.188z"/>
 <path d="m984.74 325.5h-966.37c-10.125 0-18.188-8.0625-18.188-18.188s8.0625-18.188 18.188-18.188h966.56c10.125 0 18.188 8.0625 18.188 18.188s-8.25 18.188-18.375 18.188z"/>
 <path d="m159 256.87h-56.812c-10.125 0-18.188-8.0625-18.188-18.188s8.0625-18.188 18.188-18.188h56.812c10.125 0 18.188 8.0625 18.188 18.188s-8.0625 18.188-18.188 18.188z"/>
 <path d="m263.44 256.87h-56.812c-10.125 0-18.188-8.0625-18.188-18.188s8.0625-18.188 18.188-18.188h56.812c10.125 0 18.188 8.0625 18.188 18.188s-8.25 18.188-18.188 18.188z"/>
 <path d="m367.69 256.87h-56.812c-10.125 0-18.188-8.0625-18.188-18.188s8.0625-18.188 18.188-18.188h56.812c10.125 0 18.188 8.0625 18.188 18.188s-8.0625 18.188-18.188 18.188z"/>
 <path d="m356.26 731.44c-5.0625 0-9.9375-2.0625-13.688-6.1875l-94.5-106.5c-6.1875-6.9375-6.1875-17.25 0-24.188l94.688-106.5c6.75-7.5 18.188-8.25 25.688-1.5s8.25 18.188 1.5 25.688l-83.812 94.5 83.812 94.5c6.75 7.5 6 18.938-1.5 25.688-3.5625 3-7.875 4.5-12.188 4.5z"/>
 <path d="m646.87 731.44c-4.3125 0-8.625-1.5-12-4.5-7.5-6.75-8.25-18.188-1.5-25.688l83.812-94.5-83.812-94.5c-6.75-7.5-6-18.938 1.5-25.688s18.938-6 25.688 1.5l94.688 106.5c6.1875 6.9375 6.1875 17.25 0 24.188l-94.688 106.5c-3.75 4.125-8.8125 6.1875-13.688 6.1875z"/>
 <path d="m465.56 752.63c-1.6875 0-3.375-0.1875-4.875-0.75-9.75-2.8125-15.375-12.75-12.562-22.5l72-255.37c2.8125-9.75 12.75-15.375 22.5-12.562s15.375 12.75 12.562 22.5l-72 255.37c-2.4375 8.0625-9.75 13.312-17.625 13.312z"/>
 <path d="m1020.6 1047.9h-71.625c-10.125 0-18.188-8.0625-18.188-18.188v-26.062c-9.75-3.1875-19.5-7.125-28.688-12l-18.562 18.562c-3.375 3.375-8.0625 5.25-12.938 5.25s-9.375-1.875-12.938-5.4375l-50.625-50.812c-3.375-3.375-5.25-8.0625-5.25-12.938s1.875-9.375 5.4375-12.938l18.375-18.375c-4.875-9.1875-8.8125-18.75-12-28.688h-26.062c-10.125 0-18.188-8.0625-18.188-18.188v-71.25c0-10.125 8.0625-18.188 18.188-18.188h26.062c3.1875-9.9375 7.125-19.312 12-28.5l-18.562-18.562c-3.375-3.375-5.25-8.0625-5.25-12.938s1.875-9.375 5.25-12.938l50.625-50.625c7.125-7.125 18.562-7.125 25.688 0l18.562 18.562c9.375-4.875 18.938-8.8125 28.688-11.812v-26.062c0-10.125 8.0625-18.188 18.188-18.188h71.625c10.125 0 18.188 8.0625 18.188 18.188v26.062c9.75 3.1875 19.312 7.125 28.688 11.812l18.562-18.562c7.125-7.125 18.562-7.125 25.688 0l50.625 50.625c3.375 3.375 5.25 8.0625 5.25 12.938s-1.875 9.375-5.25 12.938l-18.562 18.562c4.875 9.1875 8.8125 18.75 12 28.5h26.062c10.125 0 18.188 8.0625 18.188 18.188v71.625c0 10.125-8.0625 18.188-18.188 18.188h-26.062c-3.1875 9.9375-7.125 19.5-12 28.688l18.375 18.375c3.375 3.375 5.4375 8.0625 5.4375 12.938s-1.875 9.375-5.25 12.938l-50.625 50.812c-3.375 3.375-8.0625 5.4375-12.938 5.4375s-9.375-1.875-12.938-5.25l-18.562-18.562c-9.1875 4.875-18.75 8.8125-28.688 12v26.062c0.375 9.75-7.6875 17.812-17.812 17.812zm-53.25-36.375h35.25v-21.562c0-8.4375 5.8125-15.938 14.062-17.812 15.562-3.5625 30.375-9.75 44.25-18.375 7.125-4.5 16.5-3.5625 22.5 2.4375l15.562 15.562 24.938-24.938-15.375-15.375c-6-6-7.125-15.375-2.625-22.5 8.625-13.688 14.812-28.688 18.375-44.25 1.875-8.25 9.1875-14.062 17.812-14.062h21.75v-35.438h-21.938c-8.4375 0-15.75-5.8125-17.812-14.062-3.5625-15.562-9.75-30.375-18.375-44.062-4.5-7.125-3.5625-16.5 2.4375-22.688l15.562-15.562-24.938-24.938-15.562 15.375c-6 6-15.188 6.9375-22.5 2.625-14.062-8.625-28.875-14.812-44.25-18.375-8.25-1.875-14.062-9.1875-14.062-17.812v-21.75h-35.25v21.75c0 8.4375-5.8125 15.938-14.062 17.812-15.375 3.5625-30.375 9.75-44.25 18.375-7.125 4.3125-16.5 3.375-22.5-2.625l-15.562-15.375-24.938 24.938 15.562 15.562c6 6 7.125 15.375 2.4375 22.688-8.625 13.5-14.812 28.312-18.375 44.062-1.875 8.25-9.1875 14.062-17.812 14.062h-21.938v35.438h21.938c8.4375 0 15.75 5.8125 17.812 14.062 3.5625 15.562 9.75 30.375 18.375 44.25 4.5 7.125 3.5625 16.5-2.625 22.5l-15.375 15.375 24.938 24.938 15.562-15.562c6-6 15.375-7.125 22.5-2.4375 13.875 8.625 28.688 14.812 44.25 18.375 8.25 1.875 14.062 9.1875 14.062 17.812v21.562z"/>
 <path d="m984.74 949.31c-64.312 0-116.62-52.312-116.62-116.62s52.312-116.62 116.62-116.62 116.62 52.312 116.62 116.62-52.312 116.62-116.62 116.62zm0-196.69c-44.25 0-80.25 36-80.25 80.25s36 80.25 80.25 80.25 80.25-36 80.25-80.25-36-80.25-80.25-80.25z"/>
</svg>
