<?xml version="1.0" encoding="UTF-8"?>
<svg width="1200pt" height="1200pt" version="1.1" viewBox="0 0 1200 1200" xmlns="http://www.w3.org/2000/svg">
 <path d="m847.22 426.71c57.844-57.844 151.69-57.609 209.53 0 2.3906 2.3906 5.5312 3.6094 8.3906 3.6094s6.2344-1.2188 8.3906-3.6094c4.7812-4.7812 4.7812-12.234 0-17.062-66.938-66.938-176.16-67.219-243.37 0-4.7812 4.7812-4.7812 12.234 0 17.062s12.469 4.8281 17.062 0z"/>
 <path d="m858.47 438c-4.7812 4.7812-4.7812 12.234 0 17.062 4.7812 4.7812 12.234 4.7812 17.062 0 42.234-42.234 110.62-42 152.86 0 2.3906 2.3906 5.5312 3.6094 8.3906 3.6094s6.2344-1.2188 8.3906-3.6094c4.7812-4.7812 4.7812-12.234 0-17.062-51.328-51.375-135.1-51.375-186.71 0z"/>
 <path d="m886.78 466.31c-4.7812 4.7812-4.7812 12.234 0 17.062 4.7812 4.7812 12.234 4.7812 17.062 0 26.391-26.625 69.609-26.625 96.234 0 2.3906 2.3906 5.5312 3.6094 8.3906 3.6094s6.2344-1.2188 8.3906-3.6094c4.7812-4.7812 4.7812-12.234 0-17.062-35.719-35.766-94.078-35.766-130.08 0z"/>
 <path d="m915.14 494.63c-4.7812 4.5469-4.7812 12.234 0 17.062 4.7812 4.7812 12.234 4.7812 17.062 0 11.062-11.062 28.781-11.062 39.609 0 2.3906 2.3906 5.5312 3.6094 8.3906 3.6094s6.2344-1.2188 8.3906-3.6094c4.7812-4.7812 4.7812-12.234 0-17.062-20.203-20.156-53.062-20.156-73.453 0z"/>
 <path d="m1107.6 210.47h-1015.2c-13.453 0-24.469 11.062-24.469 24.469v730.55c0 13.453 11.062 24.469 24.469 24.469h1015.2c13.453 0 24.469-11.062 24.469-24.469v-730.78c0-13.406-11.016-24.234-24.469-24.234zm-261.84 24.234-65.531 74.859h-17.531l65.531-74.859zm-753.37-0.23438 703.92 0.23438-65.531 74.859-638.39 0.046875zm1015.7 730.82c0 0.23438-0.23438 0.46875-0.46875 0.46875l-1015.7-0.46875 0.23438-631.92h1015.7v631.92zm0-655.92h-295.92l65.531-74.625h230.39z"/>
 <path d="m166.78 243.37c-15.609 0-28.547 12.703-28.547 28.547 0 15.609 12.703 28.547 28.547 28.547 15.609 0 28.547-12.703 28.547-28.547-0.1875-15.844-12.938-28.547-28.547-28.547zm-4.5469 28.547c0-2.3906 1.9219-4.5469 4.5469-4.5469 2.3906 0 4.5469 1.9219 4.5469 4.5469-0.1875 5.0156-9.0938 4.7812-9.0938 0z"/>
 <path d="m239.06 243.37c-15.609 0-28.547 12.703-28.547 28.547 0 15.609 12.703 28.547 28.547 28.547 15.609 0 28.547-12.703 28.547-28.547-0.23438-15.844-12.984-28.547-28.547-28.547zm-4.5938 28.547c0-2.3906 1.9219-4.5469 4.5469-4.5469 2.3906 0 4.5469 1.9219 4.5469 4.5469-0.1875 4.7812-9.0938 5.0156-9.0938 0z"/>
 <path d="m311.29 243.37c-15.609 0-28.547 12.703-28.547 28.547 0 15.609 12.703 28.547 28.547 28.547s28.547-12.703 28.547-28.547-12.984-28.547-28.547-28.547zm-4.5938 28.547c0-2.3906 1.9219-4.5469 4.5469-4.5469s4.5469 1.9219 4.5469 4.5469c0.046875 5.0156-9.0938 5.0156-9.0938 0z"/>
 <path d="m356.63 718.08c3.375 12 7.6875 23.766 12.703 34.547v0.23438c5.2969 12 11.766 23.766 19.219 35.062 8.1562 12.469 17.766 24.234 27.844 35.062l0.23438 0.23438c12.234 12.938 25.922 24.703 40.781 34.547 42 28.547 91.219 43.688 142.08 43.688s100.31-15.141 142.08-43.688c14.859-10.078 28.547-21.609 40.781-34.547 10.312-10.781 19.688-22.547 27.844-35.062 7.4531-11.297 14.156-23.062 19.219-34.781 0 0 0-0.23438 0.23438-0.23438v-0.23438c5.0625-11.062 9.375-22.547 12.703-34.547 3.375-11.531 5.7656-23.297 7.4531-34.781v-1.6875c1.4531-10.781 2.3906-21.844 2.3906-33.141 0-12-0.70312-23.766-2.3906-34.781-1.4531-11.766-4.0781-23.531-7.4531-35.062-3.375-12-7.6875-23.766-12.703-34.547v-0.23438c-5.2969-12-11.766-23.766-19.219-35.062-8.1562-12.469-17.766-24.234-27.844-35.062l-0.23438-0.23438c-12.234-12.938-25.922-24.703-40.781-34.547-42-28.547-91.219-43.688-142.08-43.688s-100.31 15.141-142.08 43.688c-14.859 10.078-28.547 21.609-40.781 34.547-10.312 10.781-19.688 22.547-27.844 35.062-7.4531 11.297-14.156 23.062-19.219 34.781 0 0 0 0.23438-0.23438 0.23438v0.23438c-5.0625 11.062-9.375 22.781-12.703 34.547-3.375 11.297-5.7656 23.297-7.4531 34.781-1.6875 11.297-2.3906 23.062-2.3906 35.062s0.70312 23.766 2.3906 34.781c1.6875 11.812 4.125 23.531 7.4531 34.828zm328.31 121.22c-10.312 10.312-21.609 17.766-33.141 23.766 1.9219-3.1406 3.6094-6.2344 5.5312-9.8438 3.8438-7.6875 7.6875-16.781 11.297-26.625h27.844c-3.8438 4.5469-7.4062 8.8594-11.531 12.703zm9.6094-169.69c0.23438-6.9375 0.46875-13.922 0.46875-21.375 0-7.2188-0.23438-14.156-0.46875-21.375h58.547c0.46875 6.9375 0.9375 13.922 0.9375 21.375s-0.46875 14.391-0.9375 21.375zm56.672 24c-0.9375 6.4688-1.9219 12.938-3.1406 18.938-1.4531 7.9219-3.8438 15.609-6 23.531h-52.781c0.9375-6.7031 1.9219-13.219 2.625-20.156 0.70312-7.2188 1.2188-14.859 1.6875-22.547h57.609zm-57.844-90.469c-0.46875-7.4531-0.9375-15.141-1.6875-22.312-0.70312-6.9375-1.6875-13.453-2.625-20.156h52.781c2.1562 7.9219 4.5469 15.609 6 23.766 1.2188 6 2.1562 12.234 3.1406 18.703zm-7.6875-66.516c-1.4531-8.1562-2.8594-16.312-4.5469-23.766-1.4531-6.4688-3.1406-12.703-4.7812-18.703h37.219c5.0625 8.1562 10.078 17.062 14.156 26.156 2.3906 5.2969 4.0781 10.781 6.2344 16.312zm-4.5469 247.45c1.6875-7.6875 3.1406-15.844 4.5469-24h48.469c-2.1562 5.5312-3.8438 11.062-6.2344 16.312-4.3125 9.375-9.375 17.766-14.391 26.156h-37.453c1.4531-6 3.6094-12 5.0625-18.469zm47.484 54c-6.7031 4.5469-13.922 8.1562-21.141 12 6.7031-7.2188 12.938-15.141 18.703-23.297h17.062c-4.5469 3.8438-9.3281 7.6875-14.625 11.297zm62.438-63.375c-6.4688 9.8438-13.922 19.219-22.078 27.844h-27.609c2.8594-5.2969 5.5312-10.781 8.1562-16.312 3.8438-8.3906 6.9375-17.297 10.078-26.156h40.312c-2.625 5.0625-5.5312 9.8438-8.8594 14.625zm29.25-63.094c-2.3906 8.3906-5.7656 16.547-9.1406 24.469h-44.391c1.6875-6.2344 3.6094-12.469 4.7812-18.703 1.6875-7.6875 2.8594-15.609 3.8438-23.766h48.703c-1.4062 6-2.1094 12.234-3.7969 18zm8.625-63.141c0 7.2188-0.70312 14.156-1.4531 21.375h-50.391c0.46875-6.9375 0.9375-13.922 0.9375-21.375s-0.46875-14.156-0.9375-21.375h50.391c0.75 6.9844 1.4531 13.969 1.4531 21.375zm-17.719-87.844c3.375 7.9219 6.7031 16.078 9.1406 24.703 1.6875 5.7656 2.625 12 3.8438 18h-48.703c-0.9375-8.1562-2.1562-16.078-3.8438-23.531-1.2188-6.4688-3.1406-12.703-4.7812-18.938h44.344zm-20.156-38.625c3.1406 4.7812 6.2344 9.6094 8.8594 14.625h-40.312c-3.1406-8.8594-6.2344-17.766-10.078-26.156-2.625-5.5312-5.2969-11.062-8.1562-16.312h27.609c8.1562 8.625 15.562 18 22.078 27.844zm-62.438-63.141c5.0625 3.6094 10.078 7.4531 14.859 11.297h-17.062c-5.7656-8.3906-12-16.078-18.703-23.297 6.9844 3.6094 14.203 7.4531 20.906 12zm-43.688-1.4062c4.0781 4.0781 7.9219 8.1562 11.531 12.703h-27.844c-3.6094-9.8438-7.2188-19.219-11.297-26.625-1.9219-3.6094-3.6094-6.7031-5.5312-9.8438 11.578 6 22.828 13.453 33.141 23.766zm-72.938-33.609c8.1562 5.2969 16.312 15.375 24 30.469 2.3906 4.5469 4.7812 10.078 6.9375 15.844h-30.938zm0 70.312h39.141c2.3906 7.6875 4.5469 15.375 6.4688 24 1.4531 5.7656 2.3906 12.234 3.6094 18.469h-49.219zm0 66.469h53.062c0.9375 7.4531 2.1562 14.625 2.8594 22.547 0.70312 6.4688 0.9375 13.453 1.4531 20.156l-57.375 0.046875zm0 87.844v-21.375h58.547c0.23438 6.9375 0.46875 13.922 0.46875 21.375 0 7.2188-0.23438 14.156-0.46875 21.375h-58.547zm0 45.141h57.375c-0.46875 6.7031-0.70312 13.453-1.4531 20.156-0.70312 7.6875-1.9219 15.141-2.8594 22.312h-53.062zm0 66.469h49.219c-1.2188 6.2344-2.1562 12.703-3.6094 18.703-1.9219 8.3906-4.3125 16.078-6.4688 24h-39.141zm0 66.469h30.938c-2.3906 5.7656-4.5469 11.062-7.2188 15.844-7.6875 15.141-15.844 25.219-24 30.469l0.046875-46.312zm-223.22-90.469c-3.375-7.9219-6.7031-16.078-9.1406-24.703-1.6875-5.7656-2.625-12-3.8438-18h48.703c0.9375 8.1562 2.1562 16.078 3.8438 23.531 1.2188 6.4688 3.1406 12.703 4.7812 18.938h-44.344zm20.156 38.625c-3.1406-4.7812-6.2344-9.6094-8.8594-14.625h40.312c3.1406 8.8594 6.2344 17.766 10.078 26.156 2.625 5.5312 5.2969 11.062 8.1562 16.312h-27.609c-8.1562-8.625-15.562-17.766-22.078-27.844zm105.38-14.625c1.4531 8.1562 2.8594 16.312 4.5469 23.766 1.4531 6.4688 3.1406 12.703 4.7812 18.703h-37.219c-5.0625-8.1562-9.8438-16.781-14.156-26.156-2.3906-5.2969-4.0781-10.781-6.2344-16.312zm-56.391-24c-2.1562-7.9219-4.5469-15.609-6-23.766-1.2188-6-2.1562-12.234-3.1406-18.703h57.609c0.46875 7.4531 0.9375 15.141 1.6875 22.312 0.70312 6.9375 1.6875 13.453 2.625 20.156zm60.938-223.45c-1.6875 7.6875-3.1406 15.844-4.5469 24h-48.469c2.1562-5.5312 3.8438-11.062 6.2344-16.312 4.3125-9.375 9.375-18 14.391-26.156h37.453c-1.4531 6.2344-3.6094 12-5.0625 18.469zm-8.1562 48c-0.9375 6.7031-1.9219 13.219-2.625 20.156-0.70312 7.4531-1.2188 14.859-1.6875 22.547h-57.609c0.9375-6.4688 1.9219-12.938 3.1406-18.938 1.4531-7.9219 3.6094-15.609 6-23.531h52.781zm-5.25 66.516c-0.23438 6.9375-0.46875 13.922-0.46875 21.375 0 7.2188 0.23438 14.156 0.46875 21.375h-58.547c-0.46875-6.9375-0.9375-13.922-0.9375-21.375s0.46875-14.391 0.9375-21.375zm-34.078 210.94c-5.0625-3.6094-10.078-7.4531-14.859-11.297h17.062c5.7656 8.3906 12 16.078 18.703 23.297-6.9844-3.8438-14.203-7.4531-20.906-12zm43.688 1.2188c-4.0781-3.8438-7.9219-8.1562-11.531-12.703h27.844c3.6094 9.8438 7.2188 19.219 11.297 26.625 1.9219 3.6094 3.6094 6.7031 5.5312 9.8438-11.578-5.7656-22.828-13.453-33.141-23.766zm72.938 33.562c-8.1562-5.2969-16.312-15.375-24-30.469-2.3906-4.5469-4.7812-10.078-6.9375-15.844h30.938zm0-70.312h-39.141c-2.3906-7.6875-4.5469-15.375-6.4688-24-1.4531-5.7656-2.3906-12.234-3.6094-18.469h49.219zm0-66.469h-53.062c-0.9375-7.4531-2.1562-14.625-2.8594-22.547-0.70312-6.4688-0.9375-13.453-1.4531-20.156h57.375zm0-87.609v21.375h-58.547c-0.23438-6.9375-0.46875-13.922-0.46875-21.375 0-7.2188 0.23438-14.156 0.46875-21.375h58.547zm0-45.328h-57.375c0.46875-6.7031 0.70312-13.453 1.4531-20.156 0.70312-7.6875 1.9219-15.141 2.8594-22.312h53.062zm-24-148.82c7.6875-15.141 15.844-25.219 24-30.469v46.312h-30.938c2.1562-5.7656 4.5469-11.016 6.9375-15.844zm24 39.844v42.469h-49.219c1.2188-6.2344 2.1562-12.703 3.6094-18.703 1.9219-8.3906 4.3125-16.078 6.4688-24h39.141zm-72.938-36.703c10.312-10.312 21.609-17.766 33.141-23.766-1.9219 3.1406-3.6094 6.2344-5.5312 9.8438-3.8438 7.6875-7.6875 16.781-11.297 26.625h-27.844c3.8438-4.3125 7.4062-8.625 11.531-12.703zm-43.688 1.4062c6.7031-4.5469 13.922-8.1562 21.141-12-6.7031 7.2188-12.938 15.141-18.703 23.297h-17.062c4.5469-3.8438 9.3281-7.9219 14.625-11.297zm-62.438 63.141c6.4688-9.8438 13.922-19.219 22.078-27.844h27.609c-2.8594 5.2969-5.5312 10.547-8.1562 16.312-3.8438 8.3906-6.9375 17.297-10.078 26.156h-40.312c2.625-5.0156 5.5312-9.8438 8.8594-14.625zm-29.25 63.141c2.3906-8.3906 5.7656-16.547 9.1406-24.469h44.391c-1.6875 6.2344-3.6094 12.703-4.7812 18.703-1.6875 7.6875-2.8594 15.609-3.8438 23.766h-48.703c1.4062-6 2.1094-12 3.7969-18zm-7.2188 42h50.391c-0.46875 6.9375-0.9375 13.922-0.9375 21.375s0.46875 14.156 0.9375 21.375h-50.391c-0.70312-6.9375-1.4531-13.922-1.4531-21.375 0.046875-7.4531 0.75-14.438 1.4531-21.375z"/>
 <path d="m133.92 401.06h11.062c6.7031 0 12-5.2969 12-12s-5.2969-12-12-12h-11.062c-6.7031 0-12 5.2969-12 12s5.2969 12 12 12z"/>
 <path d="m177.61 401.06h114c6.7031 0 12-5.2969 12-12s-5.2969-12-12-12h-114c-6.7031 0-12 5.2969-12 12s5.5312 12 12 12z"/>
 <path d="m133.92 443.06h11.062c6.7031 0 12-5.2969 12-12s-5.2969-12-12-12h-11.062c-6.7031 0-12 5.2969-12 12s5.2969 12 12 12z"/>
 <path d="m177.61 443.06h114c6.7031 0 12-5.2969 12-12s-5.2969-12-12-12h-114c-6.7031 0-12 5.2969-12 12s5.5312 12 12 12z"/>
 <path d="m133.92 485.06h11.062c6.7031 0 12-5.2969 12-12s-5.2969-12-12-12h-11.062c-6.7031 0-12 5.2969-12 12s5.2969 12 12 12z"/>
 <path d="m177.61 485.06h114c6.7031 0 12-5.2969 12-12s-5.2969-12-12-12h-114c-6.7031 0-12 5.2969-12 12s5.5312 12 12 12z"/>
</svg>
